<?xml version="1.0" encoding="UTF-8" standalone="no"?>
<!DOCTYPE svg PUBLIC "-//W3C//DTD SVG 1.1//EN" "http://www.w3.org/Graphics/SVG/1.1/DTD/svg11.dtd">
<svg xmlns="http://www.w3.org/2000/svg" version="1.1" viewBox="0.00 0.00 1508.00 1258.00">
<g stroke-width="2.00" fill="none" stroke-linecap="butt">
<path stroke="#54a963" vector-effect="non-scaling-stroke" d="
  M 778.15 429.13
  Q 756.02 434.54 736.68 444.92
  C 687.27 471.44 658.82 526.56 670.13 582.38
  C 679.89 630.51 713.83 666.39 759.56 683.23
  Q 768.18 686.41 777.34 687.64
  C 851.17 697.57 915.77 650.32 928.26 577.05
  C 934.46 540.68 925.55 505.45 901.68 477.79
  C 876.22 448.27 840.17 430.06 800.58 429.00
  Q 791.92 428.77 783.25 428.61"
/>
<path stroke="#54a963" vector-effect="non-scaling-stroke" d="
  M 1212.27 1063.52
  Q 1261.69 1011.49 1296.90 949.08
  C 1301.17 941.52 1306.99 933.66 1311.49 925.58
  Q 1314.55 920.08 1319.02 908.90
  Q 1322.99 898.95 1329.26 884.50
  Q 1370.86 788.69 1376.47 682.51
  Q 1377.40 664.84 1376.69 629.00
  Q 1376.48 618.82 1375.81 609.03
  Q 1375.01 597.49 1374.05 585.98
  Q 1373.57 580.30 1372.39 575.07
  A 1.43 1.40 5.0 0 0 1371.52 574.06
  C 1313.72 551.60 1225.15 524.15 1176.62 581.61
  Q 1172.11 586.95 1165.13 597.94
  C 1145.08 629.52 1127.13 663.05 1110.00 696.28
  Q 1103.42 709.04 1100.56 713.91
  C 1086.12 738.52 1065.81 762.80 1042.77 779.86
  C 1022.81 794.63 1000.22 800.66 975.59 802.73
  Q 973.47 802.91 971.68 804.02
  C 964.06 808.75 958.62 810.93 949.59 811.84
  Q 949.08 811.90 948.69 812.22
  C 939.39 819.84 928.71 826.26 920.09 834.18
  Q 911.89 841.73 908.66 845.67
  C 879.14 881.77 861.56 924.39 844.83 967.39
  Q 840.06 979.64 837.02 985.78
  C 792.30 1076.04 680.12 1104.36 588.67 1110.45
  C 585.45 1110.67 581.49 1111.48 578.75 1111.51
  C 555.40 1111.72 531.89 1113.32 508.53 1112.21
  C 497.59 1111.69 486.40 1111.52 475.76 1110.67
  Q 465.88 1109.89 456.01 1109.11
  Q 424.47 1106.61 393.22 1101.76
  C 389.20 1101.13 385.54 1099.59 381.76 1098.16
  A 0.23 0.22 78.5 0 0 381.52 1098.53
  Q 397.62 1115.58 416.69 1129.58
  C 504.89 1194.29 606.92 1236.12 716.25 1246.21
  C 716.74 1246.26 716.90 1246.49 716.75 1246.96"
/>
<path stroke="#54a963" vector-effect="non-scaling-stroke" d="
  M 1191.80 1084.07
  C 1099.06 1171.25 981.70 1226.86 855.69 1244.15
  C 850.47 1244.87 843.79 1245.29 837.89 1246.12
  C 832.81 1246.84 827.45 1246.59 822.22 1247.22
  C 816.95 1247.86 810.71 1247.49 805.75 1249.21"
/>
<path stroke="#54a963" vector-effect="non-scaling-stroke" d="
  M 800.28 1249.18
  Q 790.87 1247.94 781.47 1249.44"
/>
<path stroke="#54a963" vector-effect="non-scaling-stroke" d="
  M 769.30 1249.41
  Q 760.90 1247.88 752.47 1249.25"
/>
<path stroke="#54a963" vector-effect="non-scaling-stroke" d="
  M 747.28 1248.99
  Q 734.46 1247.08 721.51 1247.11"
/>
<path stroke="#54a963" vector-effect="non-scaling-stroke" d="
  M 44.81 727.29
  C 42.85 728.07 37.81 730.12 38.08 732.76
  Q 38.12 733.21 38.48 733.48
  L 50.67 742.56
  Q 51.15 742.91 51.32 743.49
  C 52.09 746.23 52.84 749.23 55.58 750.51
  C 60.08 752.61 61.76 749.11 63.12 745.30
  Q 65.57 738.41 72.60 735.82
  C 74.40 735.15 75.79 734.09 76.90 732.74
  A 1.09 1.08 -61.3 0 0 76.40 731.02
  L 64.51 727.12
  A 2.62 2.60 -85.2 0 1 62.73 725.00
  L 60.50 708.78
  A 0.88 0.88 0.0 0 0 58.78 708.64
  Q 56.77 715.27 54.99 722.49
  Q 53.74 727.58 49.29 726.99"
/>
<path stroke="#54a963" vector-effect="non-scaling-stroke" d="
  M 411.0560 16.0830
  A 12.26 11.36 -30.2 0 0 394.7457 12.4318
  A 12.26 11.36 -30.2 0 0 389.8640 28.4170
  A 12.26 11.36 -30.2 0 0 406.1743 32.0682
  A 12.26 11.36 -30.2 0 0 411.0560 16.0830"
/>
<path stroke="#54a963" vector-effect="non-scaling-stroke" d="
  M 207.03 106.35
  Q 208.32 108.23 209.14 111.32
  Q 212.91 125.73 216.36 140.22
  C 218.10 147.54 225.54 146.18 227.47 139.43
  Q 233.17 119.45 235.02 111.75
  C 235.91 108.03 237.02 106.42 240.93 105.33
  Q 255.75 101.19 270.79 97.95
  C 274.47 97.16 277.13 93.35 275.07 89.92
  C 273.65 87.57 270.87 86.98 268.25 86.25
  Q 254.68 82.49 241.12 78.69
  C 239.36 78.20 237.08 77.44 236.65 75.78
  Q 232.44 59.53 228.52 43.20
  C 227.02 36.97 219.14 36.74 217.35 43.33
  Q 213.25 58.38 209.07 73.41
  Q 208.01 77.21 204.18 78.15
  Q 189.66 81.71 175.17 85.37
  Q 171.78 86.23 170.65 87.30
  C 168.21 89.60 168.74 94.40 172.08 95.88
  Q 174.60 97.01 177.27 97.68
  Q 191.85 101.32 206.20 105.74
  Q 206.72 105.90 207.03 106.35"
/>
<path stroke="#54a963" vector-effect="non-scaling-stroke" d="
  M 1321.60 186.36
  C 1320.55 185.23 1313.67 176.98 1314.61 175.19
  Q 1314.76 174.89 1314.45 174.74
  Q 1312.62 173.85 1310.58 174.33
  C 1299.66 176.91 1293.33 187.63 1301.35 197.37
  Q 1303.82 200.39 1307.80 199.33
  C 1311.72 198.29 1324.98 192.29 1323.63 187.23
  Q 1323.51 186.75 1323.01 186.75
  L 1322.49 186.75
  Q 1321.96 186.75 1321.60 186.36"
/>
<path stroke="#54a963" vector-effect="non-scaling-stroke" d="
  M 133.38 283.52
  A 2.30 2.27 -82.2 0 1 134.67 285.24
  Q 136.26 295.23 137.82 304.99
  Q 138.07 306.62 138.81 308.10
  Q 139.04 308.56 139.50 308.78
  C 143.05 310.43 144.97 308.49 145.74 305.09
  Q 147.83 295.90 149.98 286.72
  C 150.26 285.53 151.46 283.94 152.49 283.71
  Q 157.12 282.67 173.49 280.26
  C 177.43 279.68 178.26 273.88 173.76 272.73
  Q 169.58 271.65 154.54 268.08
  Q 150.99 267.24 150.56 263.44
  Q 149.93 257.87 147.33 243.46
  Q 147.24 242.99 146.91 242.65
  C 143.60 239.32 140.51 242.16 139.74 245.75
  Q 137.80 254.68 135.58 263.56
  C 135.19 265.09 133.95 267.01 132.50 267.24
  Q 122.87 268.77 113.25 270.33
  C 108.41 271.12 107.01 277.01 111.69 278.07
  C 118.31 279.57 127.33 280.69 133.38 283.52"
/>
<path stroke="#54a963" vector-effect="non-scaling-stroke" d="
  M 1178.70 383.31
  L 1161.31 393.23
  A 1.68 1.68 0.0 0 0 1160.68 395.52
  L 1160.75 395.63
  A 21.47 11.63 60.3 0 0 1181.49 408.52
  L 1181.59 408.46
  A 21.47 11.63 60.3 0 0 1181.05 384.05
  L 1180.99 383.94
  A 1.68 1.68 0.0 0 0 1178.70 383.31"
/>
<path stroke="#54a963" vector-effect="non-scaling-stroke" d="
  M 1156.54 953.61
  A 2.76 2.76 0.0 0 1 1154.75 951.79
  L 1149.16 933.34
  A 2.76 2.76 0.0 0 0 1143.90 933.29
  L 1137.92 951.61
  A 2.76 2.76 0.0 0 1 1136.10 953.40
  L 1117.65 958.99
  A 2.76 2.76 0.0 0 0 1117.60 964.25
  L 1135.92 970.23
  A 2.76 2.76 0.0 0 1 1137.71 972.05
  L 1143.30 990.50
  A 2.76 2.76 0.0 0 0 1148.56 990.55
  L 1154.54 972.23
  A 2.76 2.76 0.0 0 1 1156.36 970.44
  L 1174.81 964.85
  A 2.76 2.76 0.0 0 0 1174.86 959.59
  L 1156.54 953.61"
/>
<path stroke="#54a963" vector-effect="non-scaling-stroke" d="
  M 25.0179 661.5425
  A 12.87 10.86 65.3 0 0 29.5064 645.3120
  A 12.87 10.86 65.3 0 0 14.2621 638.1575
  A 12.87 10.86 65.3 0 0 9.7736 654.3880
  A 12.87 10.86 65.3 0 0 25.0179 661.5425"
/>
<path stroke="#54a963" vector-effect="non-scaling-stroke" d="
  M 1477.30 879.55
  A 2.37 2.37 0.0 0 1 1475.61 877.82
  L 1470.35 856.42
  A 2.37 2.37 0.0 0 0 1465.76 856.37
  L 1460.05 877.66
  A 2.37 2.37 0.0 0 1 1458.32 879.35
  L 1436.92 884.61
  A 2.37 2.37 0.0 0 0 1436.87 889.20
  L 1458.16 894.91
  A 2.37 2.37 0.0 0 1 1459.85 896.64
  L 1465.11 918.04
  A 2.37 2.37 0.0 0 0 1469.70 918.09
  L 1475.41 896.80
  A 2.37 2.37 0.0 0 1 1477.14 895.11
  L 1498.54 889.85
  A 2.37 2.37 0.0 0 0 1498.59 885.26
  L 1477.30 879.55"
/>
<path stroke="#54a963" vector-effect="non-scaling-stroke" d="
  M 1434.47 1069.38
  C 1431.77 1068.60 1429.90 1067.21 1429.35 1064.93
  Q 1425.65 1049.69 1421.69 1034.52
  C 1420.22 1028.90 1412.51 1027.65 1410.75 1033.51
  Q 1406.92 1046.24 1403.15 1059.00
  C 1401.51 1064.55 1401.13 1067.24 1395.50 1068.51
  Q 1389.43 1069.88 1367.88 1075.48
  C 1361.65 1077.09 1359.85 1084.58 1366.56 1086.68
  Q 1381.01 1091.19 1395.54 1095.48
  C 1397.41 1096.04 1400.10 1097.58 1400.54 1099.23
  Q 1404.27 1113.36 1407.74 1127.55
  C 1408.29 1129.78 1408.73 1132.51 1410.65 1133.90
  C 1413.33 1135.86 1418.03 1135.33 1419.18 1131.68
  Q 1422.08 1122.50 1428.33 1101.39
  Q 1429.51 1097.41 1434.01 1096.25
  Q 1447.48 1092.78 1461.02 1089.60
  C 1465.41 1088.57 1469.00 1086.68 1467.39 1081.60
  C 1466.65 1079.27 1464.53 1078.07 1462.32 1077.43
  Q 1448.40 1073.38 1434.47 1069.38"
/>
<path stroke="#54a963" vector-effect="non-scaling-stroke" d="
  M 1276.79 1153.01
  C 1275.49 1150.43 1271.40 1140.61 1269.42 1139.42
  C 1266.40 1137.60 1259.80 1142.90 1257.69 1144.92
  C 1254.35 1148.12 1251.77 1153.18 1253.39 1157.75
  C 1256.39 1166.23 1270.50 1164.31 1276.63 1160.71
  C 1279.55 1159.00 1278.08 1155.56 1276.79 1153.01"
/>
</g>
<path fill="#68d07a" d="
  M 411.8565 15.6499
  A 13.30 12.23 -30.1 0 1 406.4835 32.9008
  A 13.30 12.23 -30.1 0 1 388.8435 28.9901
  A 13.30 12.23 -30.1 0 1 394.2165 11.7392
  A 13.30 12.23 -30.1 0 1 411.8565 15.6499
  Z
  M 411.0560 16.0830
  A 12.26 11.36 -30.2 0 0 394.7457 12.4318
  A 12.26 11.36 -30.2 0 0 389.8640 28.4170
  A 12.26 11.36 -30.2 0 0 406.1743 32.0682
  A 12.26 11.36 -30.2 0 0 411.0560 16.0830
  Z"
/>
<ellipse fill="#40824c" cx="0.00" cy="0.00" transform="translate(400.46,22.25) rotate(-30.2)" rx="12.26" ry="11.36"/>
<path fill="#68d07a" d="
  M 205.71 106.46
  C 194.17 102.83 183.09 100.62 172.30 96.92
  C 167.68 95.34 166.65 89.11 170.01 86.51
  Q 171.45 85.39 175.89 84.26
  Q 189.72 80.77 203.58 77.35
  C 206.53 76.62 207.70 75.61 208.54 72.53
  Q 212.54 57.84 216.61 43.19
  C 218.14 37.69 224.29 35.27 227.89 40.16
  Q 228.93 41.58 229.93 45.62
  Q 233.51 60.07 237.22 74.51
  C 237.58 75.94 238.21 76.86 239.73 77.31
  Q 254.44 81.61 269.25 85.50
  C 277.96 87.78 280.00 97.14 270.52 99.07
  Q 249.02 103.44 239.53 106.54
  C 236.89 107.40 236.29 110.58 235.57 113.18
  Q 232.03 126.03 228.53 138.89
  Q 227.56 142.47 226.45 143.85
  C 223.62 147.40 218.76 146.44 216.42 142.86
  C 214.91 140.56 214.87 137.72 214.36 135.64
  Q 210.18 118.46 207.93 110.32
  Q 207.59 109.11 206.48 107.08
  Q 206.22 106.62 205.71 106.46
  Z
  M 207.03 106.35
  Q 208.32 108.23 209.14 111.32
  Q 212.91 125.73 216.36 140.22
  C 218.10 147.54 225.54 146.18 227.47 139.43
  Q 233.17 119.45 235.02 111.75
  C 235.91 108.03 237.02 106.42 240.93 105.33
  Q 255.75 101.19 270.79 97.95
  C 274.47 97.16 277.13 93.35 275.07 89.92
  C 273.65 87.57 270.87 86.98 268.25 86.25
  Q 254.68 82.49 241.12 78.69
  C 239.36 78.20 237.08 77.44 236.65 75.78
  Q 232.44 59.53 228.52 43.20
  C 227.02 36.97 219.14 36.74 217.35 43.33
  Q 213.25 58.38 209.07 73.41
  Q 208.01 77.21 204.18 78.15
  Q 189.66 81.71 175.17 85.37
  Q 171.78 86.23 170.65 87.30
  C 168.21 89.60 168.74 94.40 172.08 95.88
  Q 174.60 97.01 177.27 97.68
  Q 191.85 101.32 206.20 105.74
  Q 206.72 105.90 207.03 106.35
  Z"
/>
<path fill="#40824c" d="
  M 206.20 105.74
  Q 191.85 101.32 177.27 97.68
  Q 174.60 97.01 172.08 95.88
  C 168.74 94.40 168.21 89.60 170.65 87.30
  Q 171.78 86.23 175.17 85.37
  Q 189.66 81.71 204.18 78.15
  Q 208.01 77.21 209.07 73.41
  Q 213.25 58.38 217.35 43.33
  C 219.14 36.74 227.02 36.97 228.52 43.20
  Q 232.44 59.53 236.65 75.78
  C 237.08 77.44 239.36 78.20 241.12 78.69
  Q 254.68 82.49 268.25 86.25
  C 270.87 86.98 273.65 87.57 275.07 89.92
  C 277.13 93.35 274.47 97.16 270.79 97.95
  Q 255.75 101.19 240.93 105.33
  C 237.02 106.42 235.91 108.03 235.02 111.75
  Q 233.17 119.45 227.47 139.43
  C 225.54 146.18 218.10 147.54 216.36 140.22
  Q 212.91 125.73 209.14 111.32
  Q 208.32 108.23 207.03 106.35
  Q 206.72 105.90 206.20 105.74
  Z"
/>
<path fill="#68d07a" d="
  M 778.15 429.13
  Q 756.02 434.54 736.68 444.92
  C 687.27 471.44 658.82 526.56 670.13 582.38
  C 679.89 630.51 713.83 666.39 759.56 683.23
  Q 768.18 686.41 777.34 687.64
  C 851.17 697.57 915.77 650.32 928.26 577.05
  C 934.46 540.68 925.55 505.45 901.68 477.79
  C 876.22 448.27 840.17 430.06 800.58 429.00
  Q 791.92 428.77 783.25 428.61
  C 831.38 424.08 878.05 445.16 907.18 483.08
  C 942.70 529.33 936.80 593.26 902.94 638.12
  C 871.79 679.40 819.92 697.21 769.70 687.46
  Q 769.17 687.36 769.13 687.90
  Q 762.66 778.90 729.32 862.56
  C 700.38 935.18 648.70 998.97 576.53 1032.29
  Q 521.06 1057.89 462.52 1061.03
  C 417.59 1063.44 373.16 1055.72 330.97 1040.59
  C 318.22 1036.01 308.46 1026.26 300.24 1015.80
  C 212.72 904.44 168.82 760.86 176.46 619.51
  C 183.44 490.40 232.27 364.01 314.97 264.99
  C 439.35 116.08 628.18 38.60 821.28 51.77
  C 937.83 59.72 1053.01 104.27 1145.43 175.57
  Q 1171.07 195.34 1192.34 219.88
  Q 1192.49 220.05 1192.59 220.19
  A 0.55 0.55 0.0 0 1 1191.81 220.94
  C 1187.03 217.37 1182.90 215.38 1176.59 214.89
  C 1070.77 206.67 962.58 202.47 867.05 258.54
  Q 861.97 261.52 852.70 269.19
  C 842.50 277.63 826.65 292.70 815.02 305.75
  C 790.42 333.35 780.29 367.38 778.06 403.81
  Q 777.70 409.73 778.15 429.13
  Z
  M 540.18 451.53
  A 58.92 58.92 0.0 0 0 481.26 392.61
  A 58.92 58.92 0.0 0 0 422.34 451.53
  A 58.92 58.92 0.0 0 0 481.26 510.45
  A 58.92 58.92 0.0 0 0 540.18 451.53
  Z
  M 587.13 834.71
  A 85.86 85.86 0.0 0 0 501.27 748.85
  A 85.86 85.86 0.0 0 0 415.41 834.71
  A 85.86 85.86 0.0 0 0 501.27 920.57
  A 85.86 85.86 0.0 0 0 587.13 834.71
  Z"
/>
<path fill="#68d07a" d="
  M 1324.37 184.80
  C 1327.48 194.08 1305.42 205.16 1300.05 197.45
  C 1292.26 186.26 1300.04 174.38 1312.23 172.96
  C 1317.49 172.35 1322.99 180.65 1324.37 184.80
  Z
  M 1321.60 186.36
  C 1320.55 185.23 1313.67 176.98 1314.61 175.19
  Q 1314.76 174.89 1314.45 174.74
  Q 1312.62 173.85 1310.58 174.33
  C 1299.66 176.91 1293.33 187.63 1301.35 197.37
  Q 1303.82 200.39 1307.80 199.33
  C 1311.72 198.29 1324.98 192.29 1323.63 187.23
  Q 1323.51 186.75 1323.01 186.75
  L 1322.49 186.75
  Q 1321.96 186.75 1321.60 186.36
  Z"
/>
<path fill="#40824c" d="
  M 1314.61 175.19
  C 1313.67 176.98 1320.55 185.23 1321.60 186.36
  Q 1321.96 186.75 1322.49 186.75
  L 1323.01 186.75
  Q 1323.51 186.75 1323.63 187.23
  C 1324.98 192.29 1311.72 198.29 1307.80 199.33
  Q 1303.82 200.39 1301.35 197.37
  C 1293.33 187.63 1299.66 176.91 1310.58 174.33
  Q 1312.62 173.85 1314.45 174.74
  Q 1314.76 174.89 1314.61 175.19
  Z"
/>
<path fill="#68d07a" d="
  M 151.09 285.56
  Q 148.72 296.17 146.27 306.75
  C 145.27 311.08 138.10 311.63 137.02 306.00
  Q 135.30 297.05 134.23 288.02
  C 133.65 283.20 131.45 283.63 127.66 282.76
  Q 120.25 281.06 112.83 279.30
  C 105.93 277.67 106.59 270.04 113.19 269.19
  Q 122.62 267.99 132.02 266.57
  Q 133.65 266.33 134.08 264.70
  Q 136.75 254.79 138.93 244.76
  C 140.06 239.56 147.11 238.43 148.39 244.07
  Q 149.57 249.25 151.38 263.83
  C 151.73 266.62 153.91 267.16 156.33 267.72
  Q 164.65 269.62 173.00 271.47
  C 180.59 273.16 178.16 280.97 172.27 281.58
  Q 161.90 282.64 151.75 284.90
  Q 151.21 285.02 151.09 285.56
  Z
  M 133.38 283.52
  A 2.30 2.27 -82.2 0 1 134.67 285.24
  Q 136.26 295.23 137.82 304.99
  Q 138.07 306.62 138.81 308.10
  Q 139.04 308.56 139.50 308.78
  C 143.05 310.43 144.97 308.49 145.74 305.09
  Q 147.83 295.90 149.98 286.72
  C 150.26 285.53 151.46 283.94 152.49 283.71
  Q 157.12 282.67 173.49 280.26
  C 177.43 279.68 178.26 273.88 173.76 272.73
  Q 169.58 271.65 154.54 268.08
  Q 150.99 267.24 150.56 263.44
  Q 149.93 257.87 147.33 243.46
  Q 147.24 242.99 146.91 242.65
  C 143.60 239.32 140.51 242.16 139.74 245.75
  Q 137.80 254.68 135.58 263.56
  C 135.19 265.09 133.95 267.01 132.50 267.24
  Q 122.87 268.77 113.25 270.33
  C 108.41 271.12 107.01 277.01 111.69 278.07
  C 118.31 279.57 127.33 280.69 133.38 283.52
  Z"
/>
<path fill="#40824c" d="
  M 133.38 283.52
  C 127.33 280.69 118.31 279.57 111.69 278.07
  C 107.01 277.01 108.41 271.12 113.25 270.33
  Q 122.87 268.77 132.50 267.24
  C 133.95 267.01 135.19 265.09 135.58 263.56
  Q 137.80 254.68 139.74 245.75
  C 140.51 242.16 143.60 239.32 146.91 242.65
  Q 147.24 242.99 147.33 243.46
  Q 149.93 257.87 150.56 263.44
  Q 150.99 267.24 154.54 268.08
  Q 169.58 271.65 173.76 272.73
  C 178.26 273.88 177.43 279.68 173.49 280.26
  Q 157.12 282.67 152.49 283.71
  C 151.46 283.94 150.26 285.53 149.98 286.72
  Q 147.83 295.90 145.74 305.09
  C 144.97 308.49 143.05 310.43 139.50 308.78
  Q 139.04 308.56 138.81 308.10
  Q 138.07 306.62 137.82 304.99
  Q 136.26 295.23 134.67 285.24
  A 2.30 2.27 -82.2 0 0 133.38 283.52
  Z"
/>
<path fill="#68d07a" d="
  M 1277.66 314.88
  C 1283.39 323.66 1289.63 333.47 1294.13 342.91
  A 0.64 0.64 0.0 0 1 1293.27 343.76
  C 1292.16 343.19 1291.31 341.68 1290.70 340.90
  Q 1278.99 325.82 1270.02 308.89
  A 2.19 0.56 -78.8 0 1 1269.94 307.44
  C 1270.27 304.52 1277.38 314.45 1277.66 314.88
  Z"
/>
<rect fill="#68d07a" x="-1.95" y="-42.69" transform="translate(1315.15,385.64) rotate(-26.4)" width="3.90" height="85.38" rx="1.40"/>
<path fill="#68d07a" d="
  M 1178.67 382.48
  A 2.13 2.13 0.0 0 1 1181.56 383.31
  L 1181.75 383.65
  A 22.32 12.55 61.0 0 1 1181.60 409.26
  L 1181.51 409.31
  A 22.32 12.55 61.0 0 1 1159.71 395.87
  L 1159.52 395.53
  A 2.13 2.13 0.0 0 1 1160.35 392.63
  L 1178.67 382.48
  Z
  M 1178.70 383.31
  L 1161.31 393.23
  A 1.68 1.68 0.0 0 0 1160.68 395.52
  L 1160.75 395.63
  A 21.47 11.63 60.3 0 0 1181.49 408.52
  L 1181.59 408.46
  A 21.47 11.63 60.3 0 0 1181.05 384.05
  L 1180.99 383.94
  A 1.68 1.68 0.0 0 0 1178.70 383.31
  Z"
/>
<path fill="#40824c" d="
  M 1178.70 383.31
  A 1.68 1.68 0.0 0 1 1180.99 383.94
  L 1181.05 384.05
  A 21.47 11.63 60.3 0 1 1181.59 408.46
  L 1181.49 408.52
  A 21.47 11.63 60.3 0 1 1160.75 395.63
  L 1160.68 395.52
  A 1.68 1.68 0.0 0 1 1161.31 393.23
  L 1178.70 383.31
  Z"
/>
<path fill="#40824c" d="
  M 783.25 428.61
  Q 791.92 428.77 800.58 429.00
  C 840.17 430.06 876.22 448.27 901.68 477.79
  C 925.55 505.45 934.46 540.68 928.26 577.05
  C 915.77 650.32 851.17 697.57 777.34 687.64
  Q 768.18 686.41 759.56 683.23
  C 713.83 666.39 679.89 630.51 670.13 582.38
  C 658.82 526.56 687.27 471.44 736.68 444.92
  Q 756.02 434.54 778.15 429.13
  L 783.25 428.61
  Z"
/>
<ellipse fill="#68d07a" cx="0.00" cy="0.00" transform="translate(1348.64,469.94) rotate(79.5)" rx="7.29" ry="2.13"/>
<path fill="#68d07a" d="
  M 1356.67 504.14
  A 0.47 0.47 0.0 0 1 1356.11 503.78
  L 1354.33 495.42
  A 8.37 2.25 78.0 0 1 1354.79 486.77
  L 1354.87 486.75
  A 8.37 2.25 78.0 0 1 1358.81 494.47
  L 1360.59 502.82
  A 0.47 0.47 0.0 0 1 1360.23 503.38
  L 1356.67 504.14
  Z"
/>
<path fill="#68d07a" d="
  M 1364.20 524.86
  C 1367.71 526.03 1369.59 548.66 1370.17 552.72
  Q 1370.62 555.94 1368.24 557.08
  A 0.94 0.94 0.0 0 1 1366.94 556.50
  Q 1362.55 541.41 1363.00 525.69
  A 0.91 0.91 0.0 0 1 1364.20 524.86
  Z"
/>
<path fill="#68d07a" d="
  M 1212.27 1063.52
  Q 1261.69 1011.49 1296.90 949.08
  C 1301.17 941.52 1306.99 933.66 1311.49 925.58
  Q 1314.55 920.08 1319.02 908.90
  Q 1322.99 898.95 1329.26 884.50
  Q 1370.86 788.69 1376.47 682.51
  Q 1377.40 664.84 1376.69 629.00
  Q 1376.48 618.82 1375.81 609.03
  Q 1375.01 597.49 1374.05 585.98
  Q 1373.57 580.30 1372.39 575.07
  A 1.43 1.40 5.0 0 0 1371.52 574.06
  C 1313.72 551.60 1225.15 524.15 1176.62 581.61
  Q 1172.11 586.95 1165.13 597.94
  C 1145.08 629.52 1127.13 663.05 1110.00 696.28
  Q 1103.42 709.04 1100.56 713.91
  C 1086.12 738.52 1065.81 762.80 1042.77 779.86
  C 1022.81 794.63 1000.22 800.66 975.59 802.73
  Q 973.47 802.91 971.68 804.02
  C 964.06 808.75 958.62 810.93 949.59 811.84
  Q 949.08 811.90 948.69 812.22
  C 939.39 819.84 928.71 826.26 920.09 834.18
  Q 911.89 841.73 908.66 845.67
  C 879.14 881.77 861.56 924.39 844.83 967.39
  Q 840.06 979.64 837.02 985.78
  C 792.30 1076.04 680.12 1104.36 588.67 1110.45
  C 585.45 1110.67 581.49 1111.48 578.75 1111.51
  C 555.40 1111.72 531.89 1113.32 508.53 1112.21
  C 497.59 1111.69 486.40 1111.52 475.76 1110.67
  Q 465.88 1109.89 456.01 1109.11
  Q 424.47 1106.61 393.22 1101.76
  C 389.20 1101.13 385.54 1099.59 381.76 1098.16
  A 0.23 0.22 78.5 0 0 381.52 1098.53
  Q 397.62 1115.58 416.69 1129.58
  C 504.89 1194.29 606.92 1236.12 716.25 1246.21
  C 716.74 1246.26 716.90 1246.49 716.75 1246.96
  C 605.07 1237.11 502.37 1194.33 413.25 1128.01
  Q 396.59 1115.62 382.94 1101.56
  C 380.89 1099.46 379.21 1097.71 376.73 1096.15
  Q 349.69 1079.09 333.65 1051.97
  A 0.92 0.92 0.0 0 1 335.04 1050.80
  Q 346.37 1060.57 354.33 1072.93
  C 357.89 1078.45 364.25 1083.97 370.29 1088.55
  C 379.22 1095.31 384.36 1099.46 394.32 1100.95
  Q 436.30 1107.23 478.69 1109.84
  C 492.91 1110.72 506.47 1110.89 521.41 1111.59
  C 537.54 1112.34 552.66 1111.06 568.23 1110.52
  C 624.22 1108.56 679.80 1099.45 731.56 1078.11
  C 777.21 1059.28 815.61 1027.84 837.41 982.88
  Q 840.28 976.97 845.00 964.38
  Q 859.85 924.79 875.10 895.58
  C 886.32 874.11 900.51 850.94 918.65 834.20
  C 926.66 826.81 938.43 819.48 947.91 811.60
  Q 948.30 811.26 948.82 811.20
  C 955.34 810.33 961.50 809.07 967.23 805.52
  C 970.06 803.76 972.31 801.97 975.83 801.72
  C 1002.34 799.81 1027.12 792.08 1047.07 775.33
  C 1071.14 755.11 1091.37 730.84 1105.76 702.54
  C 1123.91 666.85 1143.18 631.44 1164.41 597.49
  Q 1171.25 586.53 1175.85 581.11
  C 1206.95 544.45 1254.88 541.73 1298.99 551.04
  Q 1335.25 558.70 1370.81 572.97
  Q 1373.34 573.99 1373.64 576.52
  C 1386.01 680.56 1372.63 784.73 1331.78 880.80
  Q 1319.13 910.57 1314.93 921.18
  Q 1313.90 923.77 1308.66 931.71
  Q 1301.75 942.17 1295.53 953.05
  Q 1265.04 1006.39 1222.32 1053.81
  Q 1216.67 1060.08 1212.27 1063.52
  Z"
/>
<path fill="#40824c" d="
  M 1212.27 1063.52
  Q 1202.72 1074.47 1191.80 1084.07
  C 1099.06 1171.25 981.70 1226.86 855.69 1244.15
  C 850.47 1244.87 843.79 1245.29 837.89 1246.12
  C 832.81 1246.84 827.45 1246.59 822.22 1247.22
  C 816.95 1247.86 810.71 1247.49 805.75 1249.21
  Q 802.99 1249.72 800.28 1249.18
  Q 790.87 1247.94 781.47 1249.44
  Q 775.35 1250.56 769.30 1249.41
  Q 760.90 1247.88 752.47 1249.25
  Q 749.87 1249.73 747.28 1248.99
  Q 734.46 1247.08 721.51 1247.11
  Q 719.11 1247.61 716.75 1246.96
  C 716.90 1246.49 716.74 1246.26 716.25 1246.21
  C 606.92 1236.12 504.89 1194.29 416.69 1129.58
  Q 397.62 1115.58 381.52 1098.53
  A 0.23 0.22 78.5 0 1 381.76 1098.16
  C 385.54 1099.59 389.20 1101.13 393.22 1101.76
  Q 424.47 1106.61 456.01 1109.11
  Q 465.88 1109.89 475.76 1110.67
  C 486.40 1111.52 497.59 1111.69 508.53 1112.21
  C 531.89 1113.32 555.40 1111.72 578.75 1111.51
  C 581.49 1111.48 585.45 1110.67 588.67 1110.45
  C 680.12 1104.36 792.30 1076.04 837.02 985.78
  Q 840.06 979.64 844.83 967.39
  C 861.56 924.39 879.14 881.77 908.66 845.67
  Q 911.89 841.73 920.09 834.18
  C 928.71 826.26 939.39 819.84 948.69 812.22
  Q 949.08 811.90 949.59 811.84
  C 958.62 810.93 964.06 808.75 971.68 804.02
  Q 973.47 802.91 975.59 802.73
  C 1000.22 800.66 1022.81 794.63 1042.77 779.86
  C 1065.81 762.80 1086.12 738.52 1100.56 713.91
  Q 1103.42 709.04 1110.00 696.28
  C 1127.13 663.05 1145.08 629.52 1165.13 597.94
  Q 1172.11 586.95 1176.62 581.61
  C 1225.15 524.15 1313.72 551.60 1371.52 574.06
  A 1.43 1.40 5.0 0 1 1372.39 575.07
  Q 1373.57 580.30 1374.05 585.98
  Q 1375.01 597.49 1375.81 609.03
  Q 1376.48 618.82 1376.69 629.00
  Q 1377.40 664.84 1376.47 682.51
  Q 1370.86 788.69 1329.26 884.50
  Q 1322.99 898.95 1319.02 908.90
  Q 1314.55 920.08 1311.49 925.58
  C 1306.99 933.66 1301.17 941.52 1296.90 949.08
  Q 1261.69 1011.49 1212.27 1063.52
  Z
  M 1156.54 953.61
  A 2.76 2.76 0.0 0 1 1154.75 951.79
  L 1149.16 933.34
  A 2.76 2.76 0.0 0 0 1143.90 933.29
  L 1137.92 951.61
  A 2.76 2.76 0.0 0 1 1136.10 953.40
  L 1117.65 958.99
  A 2.76 2.76 0.0 0 0 1117.60 964.25
  L 1135.92 970.23
  A 2.76 2.76 0.0 0 1 1137.71 972.05
  L 1143.30 990.50
  A 2.76 2.76 0.0 0 0 1148.56 990.55
  L 1154.54 972.23
  A 2.76 2.76 0.0 0 1 1156.36 970.44
  L 1174.81 964.85
  A 2.76 2.76 0.0 0 0 1174.86 959.59
  L 1156.54 953.61
  Z"
/>
<path fill="#68d07a" d="
  M 25.5576 662.3131
  A 13.73 11.81 64.7 0 1 9.0128 654.9471
  A 13.73 11.81 64.7 0 1 13.8224 637.4869
  A 13.73 11.81 64.7 0 1 30.3672 644.8529
  A 13.73 11.81 64.7 0 1 25.5576 662.3131
  Z
  M 25.0179 661.5425
  A 12.87 10.86 65.3 0 0 29.5064 645.3120
  A 12.87 10.86 65.3 0 0 14.2621 638.1575
  A 12.87 10.86 65.3 0 0 9.7736 654.3880
  A 12.87 10.86 65.3 0 0 25.0179 661.5425
  Z"
/>
<ellipse fill="#40824c" cx="0.00" cy="0.00" transform="translate(19.64,649.85) rotate(65.3)" rx="12.87" ry="10.86"/>
<path fill="#68d07a" d="
  M 44.81 727.29
  C 42.85 728.07 37.81 730.12 38.08 732.76
  Q 38.12 733.21 38.48 733.48
  L 50.67 742.56
  Q 51.15 742.91 51.32 743.49
  C 52.09 746.23 52.84 749.23 55.58 750.51
  C 60.08 752.61 61.76 749.11 63.12 745.30
  Q 65.57 738.41 72.60 735.82
  C 74.40 735.15 75.79 734.09 76.90 732.74
  A 1.09 1.08 -61.3 0 0 76.40 731.02
  L 64.51 727.12
  A 2.62 2.60 -85.2 0 1 62.73 725.00
  L 60.50 708.78
  A 0.88 0.88 0.0 0 0 58.78 708.64
  Q 56.77 715.27 54.99 722.49
  Q 53.74 727.58 49.29 726.99
  Q 53.13 726.72 54.01 722.95
  Q 55.84 715.13 58.16 707.34
  A 0.94 0.93 -73.5 0 1 59.31 706.71
  Q 61.52 707.35 61.77 709.75
  Q 62.47 716.72 63.37 723.68
  C 63.87 727.51 73.27 729.26 76.75 730.36
  Q 77.93 730.73 77.77 732.54
  C 77.64 734.03 72.92 736.55 71.71 737.23
  C 67.24 739.75 65.12 741.34 63.77 745.92
  C 61.63 753.16 53.59 754.12 51.40 746.79
  Q 50.42 743.47 48.68 742.08
  Q 41.94 736.67 38.69 734.84
  C 32.96 731.60 42.25 727.52 44.81 727.29
  Z"
/>
<path fill="#40824c" d="
  M 44.81 727.29
  L 49.29 726.99
  Q 53.74 727.58 54.99 722.49
  Q 56.77 715.27 58.78 708.64
  A 0.88 0.88 0.0 0 1 60.50 708.78
  L 62.73 725.00
  A 2.62 2.60 -85.2 0 0 64.51 727.12
  L 76.40 731.02
  A 1.09 1.08 -61.3 0 1 76.90 732.74
  C 75.79 734.09 74.40 735.15 72.60 735.82
  Q 65.57 738.41 63.12 745.30
  C 61.76 749.11 60.08 752.61 55.58 750.51
  C 52.84 749.23 52.09 746.23 51.32 743.49
  Q 51.15 742.91 50.67 742.56
  L 38.48 733.48
  Q 38.12 733.21 38.08 732.76
  C 37.81 730.12 42.85 728.07 44.81 727.29
  Z"
/>
<path fill="#68d07a" d="
  M 1459.23 878.39
  A 1.72 1.68 73.0 0 0 1459.72 877.44
  Q 1461.26 868.37 1463.19 859.39
  C 1464.65 852.55 1471.61 851.99 1472.78 858.99
  Q 1474.11 867.01 1475.52 875.01
  C 1476.32 879.54 1478.08 879.29 1482.42 880.16
  C 1487.76 881.22 1494.60 881.86 1499.48 884.16
  Q 1499.95 884.38 1500.17 884.84
  C 1502.56 889.60 1499.21 891.42 1495.08 892.26
  Q 1486.34 894.05 1477.53 895.47
  Q 1477.05 895.55 1476.70 895.90
  C 1474.42 898.20 1472.53 913.04 1471.76 916.98
  C 1470.78 922.04 1464.02 921.80 1463.04 916.75
  Q 1460.25 902.36 1459.77 898.50
  C 1459.49 896.25 1458.45 895.43 1456.21 894.96
  Q 1447.40 893.14 1438.58 891.39
  Q 1434.34 890.55 1433.97 886.40
  Q 1433.93 885.91 1434.19 885.49
  Q 1435.77 882.91 1437.57 882.58
  C 1440.61 882.01 1457.99 879.65 1459.23 878.39
  Z
  M 1477.30 879.55
  A 2.37 2.37 0.0 0 1 1475.61 877.82
  L 1470.35 856.42
  A 2.37 2.37 0.0 0 0 1465.76 856.37
  L 1460.05 877.66
  A 2.37 2.37 0.0 0 1 1458.32 879.35
  L 1436.92 884.61
  A 2.37 2.37 0.0 0 0 1436.87 889.20
  L 1458.16 894.91
  A 2.37 2.37 0.0 0 1 1459.85 896.64
  L 1465.11 918.04
  A 2.37 2.37 0.0 0 0 1469.70 918.09
  L 1475.41 896.80
  A 2.37 2.37 0.0 0 1 1477.14 895.11
  L 1498.54 889.85
  A 2.37 2.37 0.0 0 0 1498.59 885.26
  L 1477.30 879.55
  Z"
/>
<path fill="#40824c" d="
  M 1477.30 879.55
  L 1498.59 885.26
  A 2.37 2.37 0.0 0 1 1498.54 889.85
  L 1477.14 895.11
  A 2.37 2.37 0.0 0 0 1475.41 896.80
  L 1469.70 918.09
  A 2.37 2.37 0.0 0 1 1465.11 918.04
  L 1459.85 896.64
  A 2.37 2.37 0.0 0 0 1458.16 894.91
  L 1436.87 889.20
  A 2.37 2.37 0.0 0 1 1436.92 884.61
  L 1458.32 879.35
  A 2.37 2.37 0.0 0 0 1460.05 877.66
  L 1465.76 856.37
  A 2.37 2.37 0.0 0 1 1470.35 856.42
  L 1475.61 877.82
  A 2.37 2.37 0.0 0 0 1477.30 879.55
  Z"
/>
<path fill="#68d07a" d="
  M 1156.54 953.61
  L 1174.86 959.59
  A 2.76 2.76 0.0 0 1 1174.81 964.85
  L 1156.36 970.44
  A 2.76 2.76 0.0 0 0 1154.54 972.23
  L 1148.56 990.55
  A 2.76 2.76 0.0 0 1 1143.30 990.50
  L 1137.71 972.05
  A 2.76 2.76 0.0 0 0 1135.92 970.23
  L 1117.60 964.25
  A 2.76 2.76 0.0 0 1 1117.65 958.99
  L 1136.10 953.40
  A 2.76 2.76 0.0 0 0 1137.92 951.61
  L 1143.90 933.29
  A 2.76 2.76 0.0 0 1 1149.16 933.34
  L 1154.75 951.79
  A 2.76 2.76 0.0 0 0 1156.54 953.61
  Z
  M 1154.42 953.95
  Q 1153.62 952.83 1153.29 951.44
  Q 1151.27 942.79 1149.23 934.14
  Q 1149.12 933.66 1148.74 933.36
  C 1145.36 930.59 1143.61 933.90 1143.01 936.75
  Q 1141.76 942.75 1139.42 950.95
  C 1138.80 953.10 1137.99 954.40 1135.82 954.81
  Q 1126.77 956.53 1117.83 958.84
  Q 1117.28 958.98 1117.15 959.53
  Q 1116.55 961.93 1117.42 964.07
  Q 1117.64 964.60 1118.20 964.72
  Q 1126.13 966.29 1133.99 968.26
  C 1136.92 969.00 1138.54 970.13 1139.23 973.01
  Q 1141.20 981.28 1143.15 989.59
  Q 1143.27 990.13 1143.74 990.42
  Q 1145.67 991.63 1147.83 990.73
  Q 1148.35 990.51 1148.55 989.99
  C 1150.66 984.65 1151.77 977.91 1153.15 972.27
  C 1153.62 970.36 1154.93 969.06 1156.74 968.73
  Q 1169.52 966.42 1173.99 965.00
  C 1175.81 964.42 1176.33 961.71 1174.84 960.24
  C 1172.29 957.71 1159.35 955.66 1155.24 954.53
  Q 1154.73 954.39 1154.42 953.95
  Z"
/>
<path fill="#68d07a" d="
  M 1430.45 1065.12
  C 1431.15 1067.68 1432.25 1067.61 1434.49 1068.28
  Q 1448.08 1072.32 1461.68 1076.36
  C 1470.11 1078.87 1471.79 1087.81 1462.26 1090.21
  Q 1447.68 1093.90 1432.99 1097.52
  C 1431.22 1097.95 1429.74 1099.21 1429.16 1101.13
  Q 1424.88 1115.29 1420.73 1129.49
  C 1418.11 1138.47 1409.44 1138.07 1407.22 1129.07
  Q 1404.18 1116.77 1401.02 1104.50
  C 1399.79 1099.71 1400.07 1097.78 1394.64 1096.18
  Q 1381.68 1092.38 1368.82 1088.45
  Q 1365.75 1087.52 1364.04 1086.21
  C 1358.77 1082.17 1361.64 1076.33 1367.23 1074.85
  Q 1381.58 1071.07 1395.99 1067.48
  C 1399.30 1066.65 1400.22 1066.12 1401.28 1062.66
  Q 1405.42 1049.10 1409.19 1035.44
  C 1412.03 1025.15 1421.16 1027.64 1423.20 1036.42
  Q 1426.55 1050.84 1430.45 1065.12
  Z
  M 1434.47 1069.38
  C 1431.77 1068.60 1429.90 1067.21 1429.35 1064.93
  Q 1425.65 1049.69 1421.69 1034.52
  C 1420.22 1028.90 1412.51 1027.65 1410.75 1033.51
  Q 1406.92 1046.24 1403.15 1059.00
  C 1401.51 1064.55 1401.13 1067.24 1395.50 1068.51
  Q 1389.43 1069.88 1367.88 1075.48
  C 1361.65 1077.09 1359.85 1084.58 1366.56 1086.68
  Q 1381.01 1091.19 1395.54 1095.48
  C 1397.41 1096.04 1400.10 1097.58 1400.54 1099.23
  Q 1404.27 1113.36 1407.74 1127.55
  C 1408.29 1129.78 1408.73 1132.51 1410.65 1133.90
  C 1413.33 1135.86 1418.03 1135.33 1419.18 1131.68
  Q 1422.08 1122.50 1428.33 1101.39
  Q 1429.51 1097.41 1434.01 1096.25
  Q 1447.48 1092.78 1461.02 1089.60
  C 1465.41 1088.57 1469.00 1086.68 1467.39 1081.60
  C 1466.65 1079.27 1464.53 1078.07 1462.32 1077.43
  Q 1448.40 1073.38 1434.47 1069.38
  Z"
/>
<path fill="#40824c" d="
  M 1429.35 1064.93
  C 1429.90 1067.21 1431.77 1068.60 1434.47 1069.38
  Q 1448.40 1073.38 1462.32 1077.43
  C 1464.53 1078.07 1466.65 1079.27 1467.39 1081.60
  C 1469.00 1086.68 1465.41 1088.57 1461.02 1089.60
  Q 1447.48 1092.78 1434.01 1096.25
  Q 1429.51 1097.41 1428.33 1101.39
  Q 1422.08 1122.50 1419.18 1131.68
  C 1418.03 1135.33 1413.33 1135.86 1410.65 1133.90
  C 1408.73 1132.51 1408.29 1129.78 1407.74 1127.55
  Q 1404.27 1113.36 1400.54 1099.23
  C 1400.10 1097.58 1397.41 1096.04 1395.54 1095.48
  Q 1381.01 1091.19 1366.56 1086.68
  C 1359.85 1084.58 1361.65 1077.09 1367.88 1075.48
  Q 1389.43 1069.88 1395.50 1068.51
  C 1401.13 1067.24 1401.51 1064.55 1403.15 1059.00
  Q 1406.92 1046.24 1410.75 1033.51
  C 1412.51 1027.65 1420.22 1028.90 1421.69 1034.52
  Q 1425.65 1049.69 1429.35 1064.93
  Z"
/>
<path fill="#68d07a" d="
  M 1191.80 1084.07
  Q 1187.45 1089.23 1177.86 1097.61
  Q 1150.01 1121.97 1126.80 1138.29
  C 1031.84 1205.07 921.99 1243.89 805.75 1249.21
  C 810.71 1247.49 816.95 1247.86 822.22 1247.22
  C 827.45 1246.59 832.81 1246.84 837.89 1246.12
  C 843.79 1245.29 850.47 1244.87 855.69 1244.15
  C 981.70 1226.86 1099.06 1171.25 1191.80 1084.07
  Z"
/>
<path fill="#68d07a" d="
  M 1278.79 1155.53
  A 4.62 4.62 0.0 0 1 1276.53 1161.66
  L 1275.33 1162.21
  A 19.06 12.67 -24.8 0 1 1252.71 1158.70
  L 1252.63 1158.52
  A 19.06 12.67 -24.8 0 1 1264.62 1139.03
  L 1265.82 1138.47
  A 4.62 4.62 0.0 0 1 1271.95 1140.73
  L 1278.79 1155.53
  Z
  M 1276.79 1153.01
  C 1275.49 1150.43 1271.40 1140.61 1269.42 1139.42
  C 1266.40 1137.60 1259.80 1142.90 1257.69 1144.92
  C 1254.35 1148.12 1251.77 1153.18 1253.39 1157.75
  C 1256.39 1166.23 1270.50 1164.31 1276.63 1160.71
  C 1279.55 1159.00 1278.08 1155.56 1276.79 1153.01
  Z"
/>
<path fill="#40824c" d="
  M 1276.79 1153.01
  C 1278.08 1155.56 1279.55 1159.00 1276.63 1160.71
  C 1270.50 1164.31 1256.39 1166.23 1253.39 1157.75
  C 1251.77 1153.18 1254.35 1148.12 1257.69 1144.92
  C 1259.80 1142.90 1266.40 1137.60 1269.42 1139.42
  C 1271.40 1140.61 1275.49 1150.43 1276.79 1153.01
  Z"
/>
<path fill="#68d07a" d="
  M 747.28 1248.99
  Q 734.31 1249.30 721.51 1247.11
  Q 734.46 1247.08 747.28 1248.99
  Z"
/>
<path fill="#68d07a" d="
  M 800.28 1249.18
  Q 790.89 1250.73 781.47 1249.44
  Q 790.87 1247.94 800.28 1249.18
  Z"
/>
<path fill="#68d07a" d="
  M 769.30 1249.41
  Q 760.83 1250.74 752.47 1249.25
  Q 760.90 1247.88 769.30 1249.41
  Z"
/>
</svg>
